<mxfile host="app.diagrams.net" agent="Mozilla/5.0 (Windows NT 10.0; Win64; x64) AppleWebKit/537.36 (KHTML, like Gecko) Chrome/128.0.0.0 Safari/537.36" version="24.7.14">
  <diagram name="Page-1" id="G6otzI7v_6QWOif55KQC">
    <mxGraphModel dx="1434" dy="780" grid="1" gridSize="10" guides="1" tooltips="1" connect="1" arrows="1" fold="1" page="1" pageScale="1" pageWidth="850" pageHeight="1100" math="0" shadow="0">
      <root>
        <mxCell id="0" />
        <mxCell id="1" parent="0" />
        <mxCell id="mrn_jg1cxD9M8_EMrljo-1" value="&lt;font style=&quot;font-size: 50px;&quot;&gt;Options&lt;/font&gt;" style="text;html=1;align=center;verticalAlign=middle;whiteSpace=wrap;rounded=0;" parent="1" vertex="1">
          <mxGeometry x="395" y="30" width="60" height="30" as="geometry" />
        </mxCell>
        <mxCell id="mrn_jg1cxD9M8_EMrljo-2" value="" style="rounded=0;whiteSpace=wrap;html=1;" parent="1" vertex="1">
          <mxGeometry x="20" y="80" width="810" height="390" as="geometry" />
        </mxCell>
        <mxCell id="mrn_jg1cxD9M8_EMrljo-3" value="&lt;font style=&quot;font-size: 20px;&quot;&gt;Volume&lt;/font&gt;" style="text;html=1;align=center;verticalAlign=middle;whiteSpace=wrap;rounded=0;" parent="1" vertex="1">
          <mxGeometry x="70" y="145" width="60" height="30" as="geometry" />
        </mxCell>
        <mxCell id="mrn_jg1cxD9M8_EMrljo-4" value="" style="rounded=0;whiteSpace=wrap;html=1;" parent="1" vertex="1">
          <mxGeometry x="170" y="140" width="400" height="40" as="geometry" />
        </mxCell>
        <mxCell id="mrn_jg1cxD9M8_EMrljo-5" value="" style="endArrow=none;html=1;rounded=0;entryX=0.5;entryY=0;entryDx=0;entryDy=0;exitX=0.5;exitY=1;exitDx=0;exitDy=0;" parent="1" source="mrn_jg1cxD9M8_EMrljo-4" target="mrn_jg1cxD9M8_EMrljo-4" edge="1">
          <mxGeometry width="50" height="50" relative="1" as="geometry">
            <mxPoint x="310" y="140" as="sourcePoint" />
            <mxPoint x="360" y="90" as="targetPoint" />
          </mxGeometry>
        </mxCell>
        <mxCell id="mrn_jg1cxD9M8_EMrljo-6" value="&lt;font style=&quot;font-size: 15px;&quot;&gt;50%&lt;/font&gt;" style="text;html=1;align=center;verticalAlign=middle;whiteSpace=wrap;rounded=0;" parent="1" vertex="1">
          <mxGeometry x="570" y="145" width="60" height="30" as="geometry" />
        </mxCell>
        <mxCell id="mrn_jg1cxD9M8_EMrljo-7" value="Reset To Default" style="rounded=0;whiteSpace=wrap;html=1;" parent="1" vertex="1">
          <mxGeometry x="680" y="370" width="120" height="40" as="geometry" />
        </mxCell>
        <mxCell id="mrn_jg1cxD9M8_EMrljo-13" value="&lt;font style=&quot;font-size: 20px;&quot;&gt;Resolution&lt;/font&gt;" style="text;html=1;align=center;verticalAlign=middle;whiteSpace=wrap;rounded=0;" parent="1" vertex="1">
          <mxGeometry x="80" y="260" width="60" height="30" as="geometry" />
        </mxCell>
        <mxCell id="_1HRCHqRopz9uf36RZ9b-4" value="" style="rounded=0;whiteSpace=wrap;html=1;" vertex="1" parent="1">
          <mxGeometry x="170" y="255" width="120" height="45" as="geometry" />
        </mxCell>
        <mxCell id="mrn_jg1cxD9M8_EMrljo-14" value="&lt;font style=&quot;font-size: 20px;&quot;&gt;1920 x 1080&lt;/font&gt;" style="text;html=1;align=center;verticalAlign=middle;whiteSpace=wrap;rounded=0;" parent="1" vertex="1">
          <mxGeometry x="170" y="260" width="120" height="30" as="geometry" />
        </mxCell>
        <mxCell id="mrn_jg1cxD9M8_EMrljo-15" value="&lt;font style=&quot;font-size: 20px;&quot;&gt;Stat Positions&lt;/font&gt;" style="text;html=1;align=center;verticalAlign=middle;whiteSpace=wrap;rounded=0;" parent="1" vertex="1">
          <mxGeometry x="40" y="375" width="140" height="30" as="geometry" />
        </mxCell>
        <mxCell id="mrn_jg1cxD9M8_EMrljo-16" value="Edit" style="rounded=0;whiteSpace=wrap;html=1;" parent="1" vertex="1">
          <mxGeometry x="230" y="370" width="120" height="40" as="geometry" />
        </mxCell>
        <mxCell id="mrn_jg1cxD9M8_EMrljo-19" value="" style="rounded=0;whiteSpace=wrap;html=1;" parent="1" vertex="1">
          <mxGeometry x="20" y="620" width="810" height="450" as="geometry" />
        </mxCell>
        <mxCell id="mrn_jg1cxD9M8_EMrljo-18" value="Heartrate: 60 BPM" style="rounded=0;whiteSpace=wrap;html=1;" parent="1" vertex="1">
          <mxGeometry x="30" y="630" width="120" height="60" as="geometry" />
        </mxCell>
        <mxCell id="mrn_jg1cxD9M8_EMrljo-20" value="Player&lt;div&gt;&lt;br&gt;&lt;/div&gt;" style="shape=umlActor;verticalLabelPosition=bottom;verticalAlign=top;html=1;outlineConnect=0;" parent="1" vertex="1">
          <mxGeometry x="395" y="840" width="60" height="110" as="geometry" />
        </mxCell>
        <mxCell id="mrn_jg1cxD9M8_EMrljo-23" value="Blue Spheres Collected: 0" style="rounded=0;whiteSpace=wrap;html=1;" parent="1" vertex="1">
          <mxGeometry x="30" y="700" width="120" height="60" as="geometry" />
        </mxCell>
        <mxCell id="mrn_jg1cxD9M8_EMrljo-24" value="Editing Stat Positions..." style="text;html=1;align=center;verticalAlign=middle;whiteSpace=wrap;rounded=0;" parent="1" vertex="1">
          <mxGeometry x="680" y="1040" width="150" height="30" as="geometry" />
        </mxCell>
        <mxCell id="mrn_jg1cxD9M8_EMrljo-25" value="" style="endArrow=classic;html=1;rounded=0;exitX=0;exitY=1;exitDx=0;exitDy=0;" parent="1" source="mrn_jg1cxD9M8_EMrljo-26" edge="1">
          <mxGeometry width="50" height="50" relative="1" as="geometry">
            <mxPoint x="320" y="590" as="sourcePoint" />
            <mxPoint x="200" y="690" as="targetPoint" />
          </mxGeometry>
        </mxCell>
        <mxCell id="mrn_jg1cxD9M8_EMrljo-26" value="Editable Stats" style="text;html=1;align=center;verticalAlign=middle;whiteSpace=wrap;rounded=0;" parent="1" vertex="1">
          <mxGeometry x="330" y="560" width="60" height="30" as="geometry" />
        </mxCell>
        <mxCell id="mrn_jg1cxD9M8_EMrljo-27" value="" style="endArrow=classic;html=1;rounded=0;entryX=0.864;entryY=0.911;entryDx=0;entryDy=0;entryPerimeter=0;exitX=0.84;exitY=0.778;exitDx=0;exitDy=0;exitPerimeter=0;" parent="1" source="mrn_jg1cxD9M8_EMrljo-19" target="mrn_jg1cxD9M8_EMrljo-19" edge="1">
          <mxGeometry width="50" height="50" relative="1" as="geometry">
            <mxPoint x="610" y="1000" as="sourcePoint" />
            <mxPoint x="660" y="950" as="targetPoint" />
          </mxGeometry>
        </mxCell>
        <mxCell id="mrn_jg1cxD9M8_EMrljo-28" value="Informs the player that they are editing" style="text;html=1;align=center;verticalAlign=middle;whiteSpace=wrap;rounded=0;" parent="1" vertex="1">
          <mxGeometry x="650" y="920" width="60" height="30" as="geometry" />
        </mxCell>
        <mxCell id="mrn_jg1cxD9M8_EMrljo-29" value="" style="endArrow=classic;html=1;rounded=0;entryX=0.506;entryY=0.444;entryDx=0;entryDy=0;entryPerimeter=0;" parent="1" target="mrn_jg1cxD9M8_EMrljo-19" edge="1">
          <mxGeometry width="50" height="50" relative="1" as="geometry">
            <mxPoint x="440" y="770" as="sourcePoint" />
            <mxPoint x="480" y="720" as="targetPoint" />
          </mxGeometry>
        </mxCell>
        <mxCell id="mrn_jg1cxD9M8_EMrljo-30" value="Editing will display over a fake game screen" style="text;html=1;align=center;verticalAlign=middle;whiteSpace=wrap;rounded=0;" parent="1" vertex="1">
          <mxGeometry x="395" y="730" width="110" height="30" as="geometry" />
        </mxCell>
        <mxCell id="mrn_jg1cxD9M8_EMrljo-31" value="" style="endArrow=classic;html=1;rounded=0;entryX=0.827;entryY=0.692;entryDx=0;entryDy=0;entryPerimeter=0;exitX=0.802;exitY=0.59;exitDx=0;exitDy=0;exitPerimeter=0;" parent="1" source="mrn_jg1cxD9M8_EMrljo-2" target="mrn_jg1cxD9M8_EMrljo-2" edge="1">
          <mxGeometry width="50" height="50" relative="1" as="geometry">
            <mxPoint x="640" y="310" as="sourcePoint" />
            <mxPoint x="690" y="260" as="targetPoint" />
          </mxGeometry>
        </mxCell>
        <mxCell id="_1HRCHqRopz9uf36RZ9b-1" value="Resets settings to default" style="text;html=1;align=center;verticalAlign=middle;whiteSpace=wrap;rounded=0;" vertex="1" parent="1">
          <mxGeometry x="610" y="270" width="60" height="30" as="geometry" />
        </mxCell>
        <mxCell id="_1HRCHqRopz9uf36RZ9b-2" value="" style="endArrow=classic;html=1;rounded=0;entryX=0.469;entryY=0.333;entryDx=0;entryDy=0;entryPerimeter=0;exitX=0.519;exitY=0.41;exitDx=0;exitDy=0;exitPerimeter=0;" edge="1" parent="1" source="mrn_jg1cxD9M8_EMrljo-2" target="mrn_jg1cxD9M8_EMrljo-2">
          <mxGeometry width="50" height="50" relative="1" as="geometry">
            <mxPoint x="420" y="270" as="sourcePoint" />
            <mxPoint x="470" y="220" as="targetPoint" />
          </mxGeometry>
        </mxCell>
        <mxCell id="_1HRCHqRopz9uf36RZ9b-3" value="Sliding bar for changing the max volume" style="text;html=1;align=center;verticalAlign=middle;whiteSpace=wrap;rounded=0;" vertex="1" parent="1">
          <mxGeometry x="390" y="250" width="130" height="30" as="geometry" />
        </mxCell>
        <mxCell id="_1HRCHqRopz9uf36RZ9b-5" value="" style="endArrow=classic;html=1;rounded=0;exitX=0.42;exitY=0.641;exitDx=0;exitDy=0;exitPerimeter=0;" edge="1" parent="1" source="mrn_jg1cxD9M8_EMrljo-2">
          <mxGeometry width="50" height="50" relative="1" as="geometry">
            <mxPoint x="220" y="360" as="sourcePoint" />
            <mxPoint x="320" y="310" as="targetPoint" />
          </mxGeometry>
        </mxCell>
        <mxCell id="_1HRCHqRopz9uf36RZ9b-6" value="Drop down menu for changing screen resolution" style="text;html=1;align=center;verticalAlign=middle;whiteSpace=wrap;rounded=0;" vertex="1" parent="1">
          <mxGeometry x="365" y="320" width="105" height="30" as="geometry" />
        </mxCell>
        <mxCell id="_1HRCHqRopz9uf36RZ9b-7" value="" style="triangle;whiteSpace=wrap;html=1;rotation=90;fillColor=#000000;" vertex="1" parent="1">
          <mxGeometry x="296.25" y="271.25" width="20" height="22.5" as="geometry" />
        </mxCell>
        <mxCell id="_1HRCHqRopz9uf36RZ9b-8" value="" style="endArrow=classic;html=1;rounded=0;entryX=0.42;entryY=0.846;entryDx=0;entryDy=0;entryPerimeter=0;exitX=0.556;exitY=0.872;exitDx=0;exitDy=0;exitPerimeter=0;" edge="1" parent="1" source="mrn_jg1cxD9M8_EMrljo-2" target="mrn_jg1cxD9M8_EMrljo-2">
          <mxGeometry width="50" height="50" relative="1" as="geometry">
            <mxPoint x="430" y="450" as="sourcePoint" />
            <mxPoint x="480" y="400" as="targetPoint" />
          </mxGeometry>
        </mxCell>
        <mxCell id="_1HRCHqRopz9uf36RZ9b-9" value="Opens Stat Position editing" style="text;html=1;align=center;verticalAlign=middle;whiteSpace=wrap;rounded=0;" vertex="1" parent="1">
          <mxGeometry x="480" y="410" width="90" height="30" as="geometry" />
        </mxCell>
      </root>
    </mxGraphModel>
  </diagram>
</mxfile>
